<svg xmlns="http://www.w3.org/2000/svg" class="lamp-artwork" data-lamp-artwork="large-helix" viewBox="0 0 120 200" role="img" aria-label="Large helix lamp" focusable="false">
 <defs>
 <linearGradient id="asset-large-helix-light" x1="0" y1="0" x2=".7" y2="1"><stop stop-color="#c7dff4"/><stop offset=".5" stop-color="#edd6f7"/><stop offset="1" stop-color="#bce9df"/></linearGradient>
 <linearGradient id="asset-large-helix-support" x1="0" y1="0" x2="1" y2="0"><stop stop-color="#bfc9c2"/><stop offset=".55" stop-color="#f5f4e9"/><stop offset="1" stop-color="#d4ddd2"/></linearGradient>
 <linearGradient id="asset-large-helix-base" x1="0" y1="0" x2="1" y2="0"><stop class="lamp-artwork-base-start" stop-color="#161a1c"/><stop class="lamp-artwork-base-middle" offset=".52" stop-color="#383d41"/><stop class="lamp-artwork-base-end" offset="1" stop-color="#171b1e"/></linearGradient>
 </defs><g fill="none" stroke-linecap="round" stroke-linejoin="round">
 <path class="lamp-artwork-frame" d="M60 177 C24 178 21 153 37 129 C52 106 76 99 102 100 C80 90 45 82 30 53 C17 27 35 10 61 12 C91 10 105 36 89 61 C72 87 42 101 16 98 C43 97 76 112 91 139 C109 169 91 179 60 177" stroke="#252a2e" stroke-width="9.5"/>
 <path d="M30 47 C21 20 41 9 61 12 C78 11 91 22 94 36" stroke="#a4c5e4" stroke-width="3.5"/>
 <path class="lamp-artwork-ribbon" d="M16 98 C38 103 74 84 89 58 C104 32 88 12 61 12" stroke="url(#asset-large-helix-light)" stroke-width="8.8"/><path d="M16 98 C38 103 74 84 89 58 C104 32 88 12 61 12" stroke="#ffffff" stroke-opacity=".48" stroke-width="1.3"/>
 <path class="lamp-artwork-ribbon" d="M102 100 C80 88 42 117 31 143 C19 167 37 179 60 177" stroke="url(#asset-large-helix-light)" stroke-width="8.8"/><path d="M102 100 C80 88 42 117 31 143 C19 167 37 179 60 177" stroke="#ffffff" stroke-opacity=".48" stroke-width="1.3"/>
 </g><g class="lamp-artwork-base" data-base="dark"><ellipse cx="60" cy="195" rx="35" ry="3" fill="#252b2920"/>
 <rect class="lamp-artwork-base-side" x="31" y="180" width="58" height="13" rx="3" fill="url(#asset-large-helix-base)"/>
 <ellipse class="lamp-artwork-base-bottom" cx="60" cy="193" rx="29" ry="4" fill="#1b1d20"/>
 <ellipse class="lamp-artwork-base-top" cx="60" cy="180" rx="29" ry="5" fill="#363b40"/></g></svg>